<svg xmlns="http://www.w3.org/2000/svg" viewBox="0 0 256 256" role="img" aria-label="soft green fern">
  <defs>
    <filter id="shadow" x="-25%" y="-25%" width="150%" height="150%">
      <feDropShadow dx="0" dy="10" stdDeviation="9" flood-color="#365143" flood-opacity="0.16"/>
    </filter>
  </defs>
  <g filter="url(#shadow)">
    <path d="M128 220 C126 166 126 98 132 40" fill="none" stroke="#2f8f58" stroke-width="14" stroke-linecap="round"/>
    <path d="M128 178 C96 158 76 130 64 96" fill="none" stroke="#43b26e" stroke-width="11" stroke-linecap="round"/>
    <path d="M130 158 C166 138 190 108 204 72" fill="none" stroke="#43b26e" stroke-width="11" stroke-linecap="round"/>
    <path d="M128 126 C98 108 82 82 74 54" fill="none" stroke="#5bc982" stroke-width="10" stroke-linecap="round"/>
    <path d="M132 112 C162 96 180 72 190 44" fill="none" stroke="#5bc982" stroke-width="10" stroke-linecap="round"/>
    <ellipse cx="78" cy="118" rx="22" ry="9" fill="#7ddc8f" transform="rotate(38 78 118)"/>
    <ellipse cx="96" cy="144" rx="22" ry="9" fill="#7ddc8f" transform="rotate(34 96 144)"/>
    <ellipse cx="174" cy="98" rx="22" ry="9" fill="#7ddc8f" transform="rotate(-34 174 98)"/>
    <ellipse cx="158" cy="128" rx="22" ry="9" fill="#7ddc8f" transform="rotate(-32 158 128)"/>
    <ellipse cx="96" cy="78" rx="18" ry="8" fill="#9be6a4" transform="rotate(35 96 78)"/>
    <ellipse cx="170" cy="66" rx="18" ry="8" fill="#9be6a4" transform="rotate(-34 170 66)"/>
  </g>
</svg>
